# xmcd
#
# Track frame offsets:
#	150
#	26720
#	39194
#	55895
#	74801
#	84520
#	103879
#	115574
#	138814
#	153507
#	165127
#	189087
#	203154
#	215409
#	226617
#
# Disc length: 3202 seconds
#
# Revision: 5
# Processed by: cddbd v1.5.2PL0 Copyright (c) Steve Scherf et al.
# Submitted via: EZCDAudioConverter 7.0.0.1
#
DISCID=ba0c800f
DTITLE=Compact Disc Club - The Blues Story
DYEAR=2000
DGENRE=Blues
TTITLE0=Roy Buchanan - The Messiah Will Come Again
TTITLE1=Muddy Waters - Hoochie Coochie Man
TTITLE2=Clarence 'gatemouth' Brown - Blues Power
TTITLE3=Howilin' Wolf and Muddy Waters and Bo Diddley - Spoonful
TTITLE4=Willie Dixon - 29 Ways
TTITLE5=B.B. King - Sweet Sixteen (Live)
TTITLE6=John Mayall - Looking Back
TTITLE7=Joe Louis Walker - Blues Of The Month Club
TTITLE8=Bobby 'blue' Bland - I Wouldn't Treat A Dog (The Way You Treated Me)
TTITLE9=Sonny Boy Williamson - Bring It On Home
TTITLE10=The Blues Project - Wake Me Shake Me
TTITLE11=Muddy Waters - Rollin' Stone
TTITLE12=Elmore James - The Sky Is Crying
TTITLE13=Chris Farlowe - Rockin' Pnheumonia
TTITLE14=Buddy Guy - My Time After A While
EXTD=
EXTT0=
EXTT1=
EXTT2=
EXTT3=
EXTT4=
EXTT5=
EXTT6=
EXTT7=
EXTT8=
EXTT9=
EXTT10=
EXTT11=
EXTT12=
EXTT13=
EXTT14=
PLAYORDER=
